<?xml version="1.0" standalone="no"?>
<!DOCTYPE svg PUBLIC "-//W3C//DTD SVG 20010904//EN"
 "http://www.w3.org/TR/2001/REC-SVG-20010904/DTD/svg10.dtd">
<svg version="1.0" xmlns="http://www.w3.org/2000/svg"
 width="512.000000pt" height="512.000000pt" viewBox="0 0 512.000000 512.000000"
 preserveAspectRatio="xMidYMid meet">

<g transform="translate(0.000000,512.000000) scale(0.100000,-0.100000)"
fill="#000000" stroke="none">
<path d="M2523 5110 c-89 -21 -113 -66 -113 -213 l0 -104 -67 -33 c-109 -54
-188 -150 -218 -266 -9 -36 -15 -103 -15 -177 l0 -119 28 7 c15 4 116 9 225
12 l197 5 0 -451 0 -451 313 0 c277 0 316 2 347 18 51 25 70 67 83 182 6 59
15 100 22 100 6 0 21 -21 34 -47 73 -150 225 -244 396 -244 324 0 536 332 401
626 -113 248 -420 333 -650 180 -62 -41 -115 -101 -147 -168 -20 -41 -27 -47
-53 -47 -27 1 -34 7 -56 53 -32 67 -131 165 -197 196 l-51 24 -4 151 -3 152
-38 76 c-44 90 -110 155 -197 195 l-58 26 -4 123 c-3 120 -4 123 -32 153 -25
26 -85 54 -106 50 -3 -1 -20 -4 -37 -9z m1314 -1210 c38 -22 73 -86 73 -130 0
-44 -35 -108 -73 -130 -43 -27 -121 -26 -165 0 -36 22 -71 88 -72 133 0 41 36
105 73 127 20 13 50 20 82 20 32 0 62 -7 82 -20z"/>
<path d="M1785 3903 c3 -10 9 -40 13 -68 l6 -50 7 47 c4 25 10 56 14 67 5 18
2 21 -20 21 -22 0 -26 -4 -20 -17z"/>
<path d="M1788 3655 c-6 -30 -3 -43 8 -33 3 4 4 19 2 35 l-3 28 -7 -30z"/>
<path d="M1234 1185 c-154 -28 -272 -87 -384 -191 -166 -157 -240 -334 -240
-577 l0 -104 76 -6 c135 -10 299 14 402 59 88 39 109 58 117 109 16 109 151
162 243 96 31 -22 44 -45 64 -111 12 -42 17 -47 88 -82 100 -49 206 -70 355
-70 149 0 255 21 355 70 71 35 76 40 88 82 28 96 63 130 140 138 89 8 154 -42
168 -131 7 -42 32 -64 116 -101 91 -40 192 -58 328 -59 153 0 262 21 362 72
76 39 80 42 98 110 15 55 58 97 109 106 90 15 160 -26 181 -106 18 -68 22 -72
97 -109 112 -57 277 -85 426 -73 l77 6 0 116 c0 149 -19 234 -74 346 -105 212
-278 350 -506 405 -83 19 -111 20 -1350 19 -990 -1 -1281 -4 -1336 -14z"/>
</g>
</svg>
